<mxfile host="Electron" modified="2025-09-15T20:54:35.283Z" agent="Mozilla/5.0 (Windows NT 10.0; Win64; x64) AppleWebKit/537.36 (KHTML, like Gecko) draw.io/23.0.2 Chrome/120.0.6099.109 Electron/28.1.0 Safari/537.36" etag="VqOnUa2kwmXe5r54_DQo" version="23.0.2" type="device">
  <diagram name="PÃ¡gina-1" id="pIkbX3upBV1R9p6f6zD_">
    <mxGraphModel dx="1793" dy="1045" grid="1" gridSize="10" guides="1" tooltips="1" connect="1" arrows="1" fold="1" page="1" pageScale="1" pageWidth="1169" pageHeight="827" math="0" shadow="0">
      <root>
        <mxCell id="0" />
        <mxCell id="1" parent="0" />
        <mxCell id="mzYdaPwq9z7bmUQIPSVl-2" value="GRAFANA" style="rounded=1;whiteSpace=wrap;html=1;fillColor=#dae8fc;strokeColor=#6c8ebf;" parent="1" vertex="1">
          <mxGeometry x="820" y="452.5" width="150" height="115" as="geometry" />
        </mxCell>
        <mxCell id="mzYdaPwq9z7bmUQIPSVl-15" style="edgeStyle=orthogonalEdgeStyle;rounded=0;orthogonalLoop=1;jettySize=auto;html=1;exitX=1;exitY=0.5;exitDx=0;exitDy=0;entryX=0;entryY=0.5;entryDx=0;entryDy=0;startArrow=classic;startFill=1;dashed=1;" parent="1" source="mzYdaPwq9z7bmUQIPSVl-4" target="mzYdaPwq9z7bmUQIPSVl-2" edge="1">
          <mxGeometry relative="1" as="geometry" />
        </mxCell>
        <mxCell id="M0xvee3q80-6bNZ6mIZk-37" style="edgeStyle=orthogonalEdgeStyle;rounded=0;orthogonalLoop=1;jettySize=auto;html=1;exitX=0.5;exitY=1;exitDx=0;exitDy=0;entryX=0;entryY=0.5;entryDx=0;entryDy=0;dashed=1;startArrow=classic;startFill=1;" edge="1" parent="1" source="mzYdaPwq9z7bmUQIPSVl-4" target="M0xvee3q80-6bNZ6mIZk-36">
          <mxGeometry relative="1" as="geometry" />
        </mxCell>
        <mxCell id="mzYdaPwq9z7bmUQIPSVl-4" value="API" style="rounded=1;whiteSpace=wrap;html=1;fillColor=#d5e8d4;strokeColor=#82b366;" parent="1" vertex="1">
          <mxGeometry x="525" y="480" width="120" height="60" as="geometry" />
        </mxCell>
        <mxCell id="mzYdaPwq9z7bmUQIPSVl-5" value="WORKER CAMPAIGN" style="rounded=0;whiteSpace=wrap;html=1;fillColor=#fff2cc;strokeColor=#d6b656;" parent="1" vertex="1">
          <mxGeometry x="270" y="210" width="120" height="60" as="geometry" />
        </mxCell>
        <mxCell id="mzYdaPwq9z7bmUQIPSVl-6" value="WORKER&lt;br&gt;CHANNELS" style="rounded=0;whiteSpace=wrap;html=1;fillColor=#fff2cc;strokeColor=#d6b656;" parent="1" vertex="1">
          <mxGeometry x="270" y="530" width="120" height="60" as="geometry" />
        </mxCell>
        <mxCell id="mzYdaPwq9z7bmUQIPSVl-8" value="MONGODB&lt;br&gt;CAMPAIGN" style="shape=cylinder3;whiteSpace=wrap;html=1;boundedLbl=1;backgroundOutline=1;size=15;fillColor=#ffe6cc;strokeColor=#d79b00;" parent="1" vertex="1">
          <mxGeometry x="280" y="10" width="100" height="130" as="geometry" />
        </mxCell>
        <mxCell id="M0xvee3q80-6bNZ6mIZk-18" style="edgeStyle=orthogonalEdgeStyle;rounded=0;orthogonalLoop=1;jettySize=auto;html=1;exitX=1;exitY=0.5;exitDx=0;exitDy=0;entryX=0;entryY=0.5;entryDx=0;entryDy=0;startArrow=none;startFill=0;" edge="1" parent="1" source="M0xvee3q80-6bNZ6mIZk-2" target="M0xvee3q80-6bNZ6mIZk-17">
          <mxGeometry relative="1" as="geometry" />
        </mxCell>
        <mxCell id="M0xvee3q80-6bNZ6mIZk-2" value="WORKER&lt;br&gt;ALERTAS" style="rounded=1;whiteSpace=wrap;html=1;fillColor=#f8cecc;strokeColor=#b85450;" vertex="1" parent="1">
          <mxGeometry x="525" y="300" width="120" height="60" as="geometry" />
        </mxCell>
        <mxCell id="M0xvee3q80-6bNZ6mIZk-3" value="MONGODB&lt;br&gt;EFFMAIL" style="shape=cylinder3;whiteSpace=wrap;html=1;boundedLbl=1;backgroundOutline=1;size=15;fillColor=#ffe6cc;strokeColor=#d79b00;" vertex="1" parent="1">
          <mxGeometry x="90" y="680" width="100" height="130" as="geometry" />
        </mxCell>
        <mxCell id="M0xvee3q80-6bNZ6mIZk-4" style="edgeStyle=orthogonalEdgeStyle;rounded=0;orthogonalLoop=1;jettySize=auto;html=1;entryX=0.5;entryY=0;entryDx=0;entryDy=0;entryPerimeter=0;dashed=1;startArrow=classic;startFill=1;" edge="1" parent="1" source="mzYdaPwq9z7bmUQIPSVl-6" target="M0xvee3q80-6bNZ6mIZk-3">
          <mxGeometry relative="1" as="geometry" />
        </mxCell>
        <mxCell id="M0xvee3q80-6bNZ6mIZk-15" style="edgeStyle=orthogonalEdgeStyle;rounded=0;orthogonalLoop=1;jettySize=auto;html=1;exitX=1;exitY=0;exitDx=0;exitDy=45;exitPerimeter=0;entryX=0;entryY=0.5;entryDx=0;entryDy=0;startArrow=classic;startFill=1;dashed=1;" edge="1" parent="1" source="M0xvee3q80-6bNZ6mIZk-6" target="M0xvee3q80-6bNZ6mIZk-2">
          <mxGeometry relative="1" as="geometry" />
        </mxCell>
        <mxCell id="M0xvee3q80-6bNZ6mIZk-16" style="edgeStyle=orthogonalEdgeStyle;rounded=0;orthogonalLoop=1;jettySize=auto;html=1;exitX=1;exitY=0;exitDx=0;exitDy=105;exitPerimeter=0;entryX=0;entryY=0.5;entryDx=0;entryDy=0;dashed=1;startArrow=classic;startFill=1;" edge="1" parent="1" source="M0xvee3q80-6bNZ6mIZk-6" target="mzYdaPwq9z7bmUQIPSVl-4">
          <mxGeometry relative="1" as="geometry" />
        </mxCell>
        <mxCell id="M0xvee3q80-6bNZ6mIZk-6" value="MONGODB&lt;br&gt;MONITORAMENTO" style="shape=cylinder3;whiteSpace=wrap;html=1;boundedLbl=1;backgroundOutline=1;size=15;fillColor=#ffe6cc;strokeColor=#d79b00;" vertex="1" parent="1">
          <mxGeometry x="270" y="339" width="120" height="150" as="geometry" />
        </mxCell>
        <mxCell id="M0xvee3q80-6bNZ6mIZk-7" style="edgeStyle=orthogonalEdgeStyle;rounded=0;orthogonalLoop=1;jettySize=auto;html=1;exitX=0.5;exitY=0;exitDx=0;exitDy=0;entryX=0.5;entryY=1;entryDx=0;entryDy=0;entryPerimeter=0;startArrow=classic;startFill=1;dashed=1;" edge="1" parent="1" source="mzYdaPwq9z7bmUQIPSVl-5" target="mzYdaPwq9z7bmUQIPSVl-8">
          <mxGeometry relative="1" as="geometry" />
        </mxCell>
        <mxCell id="M0xvee3q80-6bNZ6mIZk-12" style="edgeStyle=orthogonalEdgeStyle;rounded=0;orthogonalLoop=1;jettySize=auto;html=1;exitX=0.5;exitY=0;exitDx=0;exitDy=0;entryX=0.5;entryY=1;entryDx=0;entryDy=0;entryPerimeter=0;dashed=1;startArrow=classic;startFill=1;" edge="1" parent="1" source="mzYdaPwq9z7bmUQIPSVl-6" target="M0xvee3q80-6bNZ6mIZk-6">
          <mxGeometry relative="1" as="geometry" />
        </mxCell>
        <mxCell id="M0xvee3q80-6bNZ6mIZk-13" style="edgeStyle=orthogonalEdgeStyle;rounded=0;orthogonalLoop=1;jettySize=auto;html=1;exitX=0.5;exitY=1;exitDx=0;exitDy=0;entryX=0.5;entryY=0;entryDx=0;entryDy=0;entryPerimeter=0;dashed=1;startArrow=classic;startFill=1;" edge="1" parent="1" source="mzYdaPwq9z7bmUQIPSVl-5" target="M0xvee3q80-6bNZ6mIZk-6">
          <mxGeometry relative="1" as="geometry" />
        </mxCell>
        <mxCell id="M0xvee3q80-6bNZ6mIZk-17" value="EMAIL&lt;br&gt;SMS&lt;br&gt;WHATSAPP" style="rounded=1;whiteSpace=wrap;html=1;fillColor=#e1d5e7;strokeColor=#9673a6;" vertex="1" parent="1">
          <mxGeometry x="720" y="300" width="120" height="60" as="geometry" />
        </mxCell>
        <mxCell id="M0xvee3q80-6bNZ6mIZk-29" value="TIME" style="verticalLabelPosition=bottom;sketch=0;html=1;fillColor=#282828;strokeColor=none;verticalAlign=top;pointerEvents=1;align=center;shape=mxgraph.cisco_safe.people_places_things_icons.icon1;" vertex="1" parent="1">
          <mxGeometry x="860" y="120" width="46.5" height="50" as="geometry" />
        </mxCell>
        <mxCell id="M0xvee3q80-6bNZ6mIZk-30" value="ANALISTA" style="verticalLabelPosition=bottom;sketch=0;html=1;fillColor=#282828;strokeColor=none;verticalAlign=top;pointerEvents=1;align=center;shape=mxgraph.cisco_safe.people_places_things_icons.icon8;" vertex="1" parent="1">
          <mxGeometry x="1010" y="304" width="19.5" height="50" as="geometry" />
        </mxCell>
        <mxCell id="M0xvee3q80-6bNZ6mIZk-32" style="edgeStyle=orthogonalEdgeStyle;rounded=0;orthogonalLoop=1;jettySize=auto;html=1;exitX=1;exitY=0.5;exitDx=0;exitDy=0;entryX=0;entryY=0.527;entryDx=0;entryDy=0;entryPerimeter=0;" edge="1" parent="1" source="M0xvee3q80-6bNZ6mIZk-17" target="M0xvee3q80-6bNZ6mIZk-30">
          <mxGeometry relative="1" as="geometry" />
        </mxCell>
        <mxCell id="M0xvee3q80-6bNZ6mIZk-36" value="MONITOR DE CAMPANHAS" style="rounded=1;whiteSpace=wrap;html=1;fillColor=#b0e3e6;strokeColor=#0e8088;" vertex="1" parent="1">
          <mxGeometry x="820" y="610" width="150" height="115" as="geometry" />
        </mxCell>
        <mxCell id="M0xvee3q80-6bNZ6mIZk-38" style="edgeStyle=orthogonalEdgeStyle;rounded=0;orthogonalLoop=1;jettySize=auto;html=1;exitX=0.5;exitY=0;exitDx=0;exitDy=0;entryX=0.022;entryY=0.58;entryDx=0;entryDy=0;entryPerimeter=0;" edge="1" parent="1" source="M0xvee3q80-6bNZ6mIZk-17" target="M0xvee3q80-6bNZ6mIZk-29">
          <mxGeometry relative="1" as="geometry" />
        </mxCell>
        <mxCell id="M0xvee3q80-6bNZ6mIZk-42" style="edgeStyle=orthogonalEdgeStyle;rounded=0;orthogonalLoop=1;jettySize=auto;html=1;exitX=0.5;exitY=0;exitDx=0;exitDy=0;exitPerimeter=0;entryX=0.25;entryY=1;entryDx=0;entryDy=0;startArrow=classic;startFill=1;dashed=1;" edge="1" parent="1" source="M0xvee3q80-6bNZ6mIZk-39" target="mzYdaPwq9z7bmUQIPSVl-6">
          <mxGeometry relative="1" as="geometry" />
        </mxCell>
        <mxCell id="M0xvee3q80-6bNZ6mIZk-39" value="MONGODB&lt;br&gt;EFFSMS" style="shape=cylinder3;whiteSpace=wrap;html=1;boundedLbl=1;backgroundOutline=1;size=15;fillColor=#ffe6cc;strokeColor=#d79b00;" vertex="1" parent="1">
          <mxGeometry x="210" y="680" width="100" height="130" as="geometry" />
        </mxCell>
        <mxCell id="M0xvee3q80-6bNZ6mIZk-44" style="edgeStyle=orthogonalEdgeStyle;rounded=0;orthogonalLoop=1;jettySize=auto;html=1;entryX=0.75;entryY=1;entryDx=0;entryDy=0;startArrow=classic;startFill=1;dashed=1;" edge="1" parent="1" source="M0xvee3q80-6bNZ6mIZk-40" target="mzYdaPwq9z7bmUQIPSVl-6">
          <mxGeometry relative="1" as="geometry" />
        </mxCell>
        <mxCell id="M0xvee3q80-6bNZ6mIZk-40" value="MONGODB&lt;br&gt;EFFPUSH" style="shape=cylinder3;whiteSpace=wrap;html=1;boundedLbl=1;backgroundOutline=1;size=15;fillColor=#ffe6cc;strokeColor=#d79b00;" vertex="1" parent="1">
          <mxGeometry x="330" y="680" width="100" height="130" as="geometry" />
        </mxCell>
        <mxCell id="M0xvee3q80-6bNZ6mIZk-43" style="edgeStyle=orthogonalEdgeStyle;rounded=0;orthogonalLoop=1;jettySize=auto;html=1;exitX=0.5;exitY=0;exitDx=0;exitDy=0;exitPerimeter=0;entryX=1;entryY=0.5;entryDx=0;entryDy=0;startArrow=classic;startFill=1;dashed=1;" edge="1" parent="1" source="M0xvee3q80-6bNZ6mIZk-41" target="mzYdaPwq9z7bmUQIPSVl-6">
          <mxGeometry relative="1" as="geometry" />
        </mxCell>
        <mxCell id="M0xvee3q80-6bNZ6mIZk-41" value="MONGODB&lt;br&gt;EFFWHATSAPP" style="shape=cylinder3;whiteSpace=wrap;html=1;boundedLbl=1;backgroundOutline=1;size=15;fillColor=#ffe6cc;strokeColor=#d79b00;" vertex="1" parent="1">
          <mxGeometry x="450" y="680" width="100" height="130" as="geometry" />
        </mxCell>
      </root>
    </mxGraphModel>
  </diagram>
</mxfile>
